<svg xmlns="http://www.w3.org/2000/svg" viewBox="0 0 200 200" width="200" height="200">
  <defs>
    <linearGradient id="bg" x1="0%" y1="0%" x2="100%" y2="100%">
      <stop offset="0%" style="stop-color:#7c3aed;stop-opacity:1" />
      <stop offset="100%" style="stop-color:#a78bfa;stop-opacity:1" />
    </linearGradient>
    <linearGradient id="brain" x1="0%" y1="0%" x2="100%" y2="100%">
      <stop offset="0%" style="stop-color:#f0abfc;stop-opacity:1" />
      <stop offset="100%" style="stop-color:#e879f9;stop-opacity:1" />
    </linearGradient>
  </defs>
  <!-- Background circle -->
  <circle cx="100" cy="100" r="90" fill="url(#bg)" />
  <!-- Brain icon (simplified) -->
  <g transform="translate(100,88) scale(1.1)" fill="none" stroke="url(#brain)" stroke-width="4" stroke-linecap="round" stroke-linejoin="round">
    <!-- Left hemisphere -->
    <path d="M-8,-30 C-28,-30 -38,-18 -38,-4 C-38,4 -34,10 -28,14 C-34,18 -36,26 -30,32 C-24,38 -14,36 -8,30"/>
    <path d="M-8,-30 C-18,-26 -24,-16 -24,-4"/>
    <path d="M-28,14 C-22,12 -14,14 -8,18"/>
    <!-- Right hemisphere -->
    <path d="M8,-30 C28,-30 38,-18 38,-4 C38,4 34,10 28,14 C34,18 36,26 30,32 C24,38 14,36 8,30"/>
    <path d="M8,-30 C18,-26 24,-16 24,-4"/>
    <path d="M28,14 C22,12 14,14 8,18"/>
    <!-- Center stem -->
    <path d="M0,-30 L0,36"/>
    <!-- Connection nodes -->
    <circle cx="-16" cy="-10" r="3" fill="#f0abfc" stroke="none"/>
    <circle cx="16" cy="-10" r="3" fill="#f0abfc" stroke="none"/>
    <circle cx="-12" cy="22" r="3" fill="#f0abfc" stroke="none"/>
    <circle cx="12" cy="22" r="3" fill="#f0abfc" stroke="none"/>
    <circle cx="0" cy="4" r="3" fill="#f0abfc" stroke="none"/>
  </g>
  <!-- K8s wheel hint (small) -->
  <g transform="translate(148,148) scale(0.5)" fill="none" stroke="white" stroke-width="3" opacity="0.7">
    <circle cx="0" cy="0" r="16"/>
    <circle cx="0" cy="0" r="6"/>
    <line x1="0" y1="-16" x2="0" y2="-6"/>
    <line x1="13.9" y1="8" x2="5.2" y2="3"/>
    <line x1="-13.9" y1="8" x2="-5.2" y2="3"/>
    <line x1="0" y1="16" x2="0" y2="6"/>
    <line x1="13.9" y1="-8" x2="5.2" y2="-3"/>
    <line x1="-13.9" y1="-8" x2="-5.2" y2="-3"/>
  </g>
</svg>
